RobotoSerifText-RegularCond 01r.ufo
<glyph name="one" format="2">
  <advance width="462"/>
  <unicode hex="0031"/>
  <outline>
    <contour>
      <point x="295" y="79" type="curve" smooth="yes"/>
      <point x="295" y="609" type="line"/>
      <point x="232" y="609" type="line"/>
      <point x="203" y="558"/>
      <point x="145" y="535"/>
      <point x="65" y="533" type="curve"/>
      <point x="65" y="479" type="line"/>
      <point x="138" y="477"/>
      <point x="205" y="507"/>
      <point x="221" y="553" type="curve"/>
      <point x="207" y="544" type="line"/>
      <point x="207" y="79" type="line" smooth="yes"/>
      <point x="207" y="50"/>
      <point x="173" y="43"/>
      <point x="120" y="43" type="curve" smooth="yes"/>
      <point x="79" y="43" type="line"/>
      <point x="79" y="0" type="line"/>
      <point x="422" y="0" type="line"/>
      <point x="422" y="43" type="line"/>
      <point x="390" y="43" type="line" smooth="yes"/>
      <point x="332" y="43"/>
      <point x="295" y="50"/>
    </contour>
  </outline>
</glyph>
<glyph name="B" format="2">
  <advance width="559"/>
  <unicode hex="0042"/>
  <outline>
    <contour>
      <point x="292" y="710" type="curve" smooth="yes"/>
      <point x="35" y="710" type="line"/>
      <point x="35" y="666" type="line"/>
      <point x="44" y="666" type="line" smooth="yes"/>
      <point x="83" y="666"/>
      <point x="111" y="659"/>
      <point x="111" y="630" type="curve" smooth="yes"/>
      <point x="111" y="80" type="line" smooth="yes"/>
      <point x="111" y="51"/>
      <point x="83" y="44"/>
      <point x="44" y="44" type="curve" smooth="yes"/>
      <point x="35" y="44" type="line"/>
      <point x="35" y="0" type="line"/>
      <point x="300" y="0" type="line" smooth="yes"/>
      <point x="441.0" y="0.0"/>
      <point x="517" y="71"/>
      <point x="517" y="197" type="curve" smooth="yes"/>
      <point x="517" y="313"/>
      <point x="439" y="383"/>
      <point x="299" y="386" type="curve"/>
      <point x="353" y="354" type="line"/>
      <point x="353" y="396" type="line"/>
      <point x="292" y="362" type="line"/>
      <point x="423" y="367"/>
      <point x="492" y="430"/>
      <point x="492" y="532" type="curve" smooth="yes"/>
      <point x="492" y="644"/>
      <point x="422.0" y="710.0"/>
    </contour>
    <contour>
      <point x="183" y="397" type="line"/>
      <point x="183" y="347" type="line"/>
      <point x="292" y="347" type="line" smooth="yes"/>
      <point x="388.0" y="347.0"/>
      <point x="424" y="289"/>
      <point x="424" y="198" type="curve" smooth="yes"/>
      <point x="424" y="100"/>
      <point x="385.0" y="52.0"/>
      <point x="293" y="52" type="curve" smooth="yes"/>
      <point x="201" y="52" type="line"/>
      <point x="201" y="658" type="line"/>
      <point x="286" y="658" type="line" smooth="yes"/>
      <point x="368.0" y="658.0"/>
      <point x="401" y="615"/>
      <point x="401" y="531" type="curve" smooth="yes"/>
      <point x="401" y="448"/>
      <point x="372.0" y="397.0"/>
      <point x="286" y="397" type="curve" smooth="yes"/>
    </contour>
  </outline>
</glyph>
<glyph name="E" format="2">
  <advance width="524"/>
  <unicode hex="0045"/>
  <anchor x="324" y="741" name="top"/>
  <anchor x="388" y="0" name="right"/>
  <anchor x="324" y="0" name="bottom"/>
  <outline>
    <contour>
      <point x="478" y="211" type="line"/>
      <point x="427" y="211" type="line"/>
      <point x="419" y="96" type="line" smooth="yes"/>
      <point x="416" y="60"/>
      <point x="387.0" y="53.0"/>
      <point x="317" y="53" type="curve" smooth="yes"/>
      <point x="200" y="53" type="line"/>
      <point x="200" y="657" type="line"/>
      <point x="306" y="657" type="line" smooth="yes"/>
      <point x="374.0" y="657.0"/>
      <point x="403" y="650"/>
      <point x="406" y="614" type="curve" smooth="yes"/>
      <point x="413" y="524" type="line"/>
      <point x="464" y="524" type="line"/>
      <point x="464" y="710" type="line"/>
      <point x="35" y="710" type="line"/>
      <point x="35" y="666" type="line"/>
      <point x="44" y="666" type="line" smooth="yes"/>
      <point x="83" y="666"/>
      <point x="111" y="659"/>
      <point x="111" y="630" type="curve" smooth="yes"/>
      <point x="111" y="80" type="line" smooth="yes"/>
      <point x="111" y="51"/>
      <point x="83" y="44"/>
      <point x="44" y="44" type="curve" smooth="yes"/>
      <point x="35" y="44" type="line"/>
      <point x="35" y="0" type="line"/>
      <point x="478" y="0" type="line"/>
    </contour>
    <contour>
      <point x="176" y="388" type="curve"/>
      <point x="176" y="340" type="line"/>
      <point x="244.00188830112475" y="337.04339616082063"/>
      <point x="312.33141991895815" y="333.99025235532474"/>
      <point x="380" y="332" type="curve"/>
      <point x="380" y="395" type="line"/>
      <point x="312.33106137089504" y="392.014605648716"/>
      <point x="244.00084012629378" y="389.9710388442404"/>
    </contour>
  </outline>
</glyph>
<glyph name="c" format="2">
  <advance width="463"/>
  <unicode hex="0063"/>
  <anchor x="250" y="508" name="top"/>
  <anchor x="260" y="0" name="bottom"/>
  <outline>
    <contour>
      <point x="262" y="41" type="curve" smooth="yes"/>
      <point x="175" y="41"/>
      <point x="126" y="126"/>
      <point x="126" y="254" type="curve" smooth="yes"/>
      <point x="126" y="378"/>
      <point x="174" y="466"/>
      <point x="266" y="466" type="curve" smooth="yes"/>
      <point x="317" y="466"/>
      <point x="365" y="433"/>
      <point x="383" y="391" type="curve"/>
      <point x="390" y="417"/>
      <point x="374" y="439"/>
      <point x="349" y="445" type="curve"/>
      <point x="349" y="339" type="line"/>
      <point x="429" y="339" type="line"/>
      <point x="429" y="453" type="line"/>
      <point x="408" y="477"/>
      <point x="349" y="518"/>
      <point x="264" y="518" type="curve" smooth="yes"/>
      <point x="128" y="518"/>
      <point x="36" y="410"/>
      <point x="36" y="254" type="curve" smooth="yes"/>
      <point x="36" y="98"/>
      <point x="124" y="-10"/>
      <point x="256" y="-10" type="curve" smooth="yes"/>
      <point x="349" y="-10"/>
      <point x="400" y="46"/>
      <point x="437" y="115" type="curve"/>
      <point x="398" y="151" type="line"/>
      <point x="373" y="104"/>
      <point x="333" y="41"/>
    </contour>
  </outline>
</glyph>
<glyph name="j" format="2">
  <advance width="248"/>
  <unicode hex="006A"/>
  <outline>
    <contour>
      <point x="89" y="-51" type="line" smooth="yes"/>
      <point x="89" y="-150"/>
      <point x="58" y="-180"/>
      <point x="9" y="-180" type="curve" smooth="yes"/>
      <point x="-15" y="-180"/>
      <point x="-35" y="-174"/>
      <point x="-53" y="-166" type="curve"/>
      <point x="-53" y="-223" type="line"/>
      <point x="-39" y="-231"/>
      <point x="-11" y="-236"/>
      <point x="15" y="-236" type="curve" smooth="yes"/>
      <point x="100" y="-236"/>
      <point x="175" y="-196"/>
      <point x="175" y="-51" type="curve" smooth="yes"/>
      <point x="175" y="508" type="line"/>
      <point x="14" y="508" type="line"/>
      <point x="14" y="466" type="line"/>
      <point x="26" y="464" type="line" smooth="yes"/>
      <point x="68" y="457"/>
      <point x="89" y="448"/>
      <point x="89" y="419" type="curve" smooth="yes"/>
    </contour>
    <contour>
      <point x="129" y="627" type="curve" smooth="yes"/>
      <point x="161" y="627"/>
      <point x="184" y="648"/>
      <point x="184" y="683" type="curve" smooth="yes"/>
      <point x="184" y="718"/>
      <point x="161" y="739"/>
      <point x="129" y="739" type="curve" smooth="yes"/>
      <point x="96" y="739"/>
      <point x="73" y="718"/>
      <point x="73" y="683" type="curve" smooth="yes"/>
      <point x="73" y="648"/>
      <point x="96" y="627"/>
    </contour>
  </outline>
</glyph>
<glyph name="k" format="2">
  <advance width="531"/>
  <unicode hex="006B"/>
  <anchor x="268" y="0" name="bottom"/>
  <outline>
    <contour>
      <point x="513" y="0" type="line"/>
      <point x="513" y="42" type="line"/>
      <point x="511" y="42" type="line"/>
      <point x="481" y="42"/>
      <point x="456" y="48"/>
      <point x="433" y="80" type="curve" smooth="yes"/>
      <point x="271" y="305" type="line"/>
      <point x="264" y="267" type="line"/>
      <point x="392" y="417" type="line" smooth="yes"/>
      <point x="421" y="451"/>
      <point x="452" y="466"/>
      <point x="485" y="466" type="curve"/>
      <point x="487" y="466" type="line"/>
      <point x="487" y="508" type="line"/>
      <point x="281" y="508" type="line"/>
      <point x="281" y="466" type="line"/>
      <point x="284" y="466" type="line"/>
      <point x="308" y="466"/>
      <point x="350" y="463"/>
      <point x="350" y="448" type="curve"/>
      <point x="203" y="275" type="line"/>
      <point x="203" y="270" type="line"/>
      <point x="350" y="52" type="line"/>
      <point x="350" y="45"/>
      <point x="315" y="42"/>
      <point x="294" y="42" type="curve"/>
      <point x="291" y="42" type="line"/>
      <point x="291" y="0" type="line"/>
    </contour>
    <contour>
      <point x="181" y="735" type="line"/>
      <point x="30" y="735" type="line"/>
      <point x="30" y="692" type="line"/>
      <point x="38" y="690" type="line" smooth="yes"/>
      <point x="78" y="681"/>
      <point x="95" y="674"/>
      <point x="95" y="645" type="curve" smooth="yes"/>
      <point x="95" y="77" type="line" smooth="yes"/>
      <point x="95" y="48"/>
      <point x="69" y="41"/>
      <point x="32" y="41" type="curve"/>
      <point x="30" y="41" type="line"/>
      <point x="30" y="0" type="line"/>
      <point x="240" y="0" type="line"/>
      <point x="240" y="41" type="line"/>
      <point x="237" y="41" type="line" smooth="yes"/>
      <point x="216" y="41"/>
      <point x="181" y="44"/>
      <point x="181" y="51" type="curve" smooth="yes"/>
    </contour>
  </outline>
</glyph>
<glyph name="w" format="2">
  <advance width="686"/>
  <unicode hex="0077"/>
  <anchor x="349" y="508" name="top"/>
  <outline>
    <contour>
      <point x="348" y="422" type="line"/>
      <point x="252" y="0" type="line"/>
      <point x="166" y="0" type="line"/>
      <point x="58" y="435" type="line" smooth="yes"/>
      <point x="52" y="460"/>
      <point x="30" y="466"/>
      <point x="5" y="466" type="curve"/>
      <point x="5" y="466" type="line"/>
      <point x="5" y="508" type="line"/>
      <point x="211" y="508" type="line"/>
      <point x="211" y="466" type="line"/>
      <point x="210" y="466" type="line" smooth="yes"/>
      <point x="174" y="466"/>
      <point x="140" y="464"/>
      <point x="140" y="457" type="curve"/>
      <point x="230" y="53" type="line"/>
      <point x="218" y="52" type="line"/>
      <point x="323" y="508" type="line"/>
      <point x="391" y="508" type="line"/>
      <point x="497" y="53" type="line"/>
      <point x="486" y="52" type="line"/>
      <point x="574" y="445" type="line"/>
      <point x="573" y="458"/>
      <point x="544" y="466"/>
      <point x="508" y="466" type="curve" smooth="yes"/>
      <point x="506" y="466" type="line"/>
      <point x="506" y="508" type="line"/>
      <point x="682" y="508" type="line"/>
      <point x="682" y="466" type="line"/>
      <point x="681" y="466" type="line"/>
      <point x="656" y="466"/>
      <point x="631" y="454"/>
      <point x="624" y="423" type="curve" smooth="yes"/>
      <point x="522" y="0" type="line"/>
      <point x="436" y="0" type="line"/>
      <point x="335" y="425" type="line"/>
    </contour>
  </outline>
</glyph>
<glyph name="z" format="2">
  <advance width="394"/>
  <unicode hex="007A"/>
  <anchor x="201" y="508" name="top"/>
  <anchor x="221" y="0" name="bottom"/>
  <outline>
    <contour>
      <point x="106" y="34" type="line"/>
      <point x="366" y="458" type="line"/>
      <point x="366" y="508" type="line"/>
      <point x="39" y="508" type="line"/>
      <point x="39" y="349" type="line"/>
      <point x="85" y="349" type="line"/>
      <point x="92" y="416" type="line" smooth="yes"/>
      <point x="97" y="452"/>
      <point x="123" y="459"/>
      <point x="193" y="459" type="curve" smooth="yes"/>
      <point x="304" y="459" type="line"/>
      <point x="286" y="472" type="line"/>
      <point x="26" y="55" type="line"/>
      <point x="26" y="0" type="line"/>
      <point x="376" y="0" type="line"/>
      <point x="376" y="176" type="line"/>
      <point x="329" y="176" type="line"/>
      <point x="321" y="95" type="line" smooth="yes"/>
      <point x="317" y="57"/>
      <point x="290" y="50"/>
      <point x="221" y="50" type="curve" smooth="yes"/>
      <point x="95" y="50" type="line"/>
    </contour>
  </outline>
</glyph>
<glyph name="ordmasculine" format="2">
  <advance width="425"/>
  <unicode hex="00BA"/>
  <outline>
    <contour>
      <point x="213" y="720" type="curve" smooth="yes"/>
      <point x="110" y="720"/>
      <point x="39" y="637"/>
      <point x="39" y="516" type="curve" smooth="yes"/>
      <point x="39" y="394"/>
      <point x="110" y="312"/>
      <point x="213" y="312" type="curve" smooth="yes"/>
      <point x="315" y="312"/>
      <point x="387" y="394"/>
      <point x="387" y="516" type="curve" smooth="yes"/>
      <point x="387" y="637"/>
      <point x="315" y="720"/>
    </contour>
    <contour>
      <point x="213" y="360" type="curve" smooth="yes"/>
      <point x="157" y="360"/>
      <point x="121" y="422"/>
      <point x="121" y="516" type="curve" smooth="yes"/>
      <point x="121" y="606"/>
      <point x="157" y="672"/>
      <point x="213" y="672" type="curve" smooth="yes"/>
      <point x="269" y="672"/>
      <point x="305" y="606"/>
      <point x="305" y="516" type="curve" smooth="yes"/>
      <point x="305" y="422"/>
      <point x="269" y="360"/>
    </contour>
  </outline>
</glyph>
<glyph name="oslash" format="2">
  <advance width="510"/>
  <unicode hex="00F8"/>
  <anchor x="256" y="508" name="top"/>
  <outline>
    <contour>
      <point x="0" y="-15" type="line"/>
      <point x="70" y="-15" type="line"/>
      <point x="503" y="522" type="line"/>
      <point x="432" y="522" type="line"/>
    </contour>
    <contour>
      <point x="255" y="-10" type="curve"/>
      <point x="384" y="-10"/>
      <point x="475" y="97"/>
      <point x="475" y="254" type="curve" smooth="yes"/>
      <point x="475" y="410"/>
      <point x="384" y="518"/>
      <point x="255" y="518" type="curve" smooth="yes"/>
      <point x="127" y="518"/>
      <point x="36" y="411"/>
      <point x="36" y="254" type="curve" smooth="yes"/>
      <point x="36" y="97"/>
      <point x="127" y="-10"/>
    </contour>
    <contour>
      <point x="255" y="42" type="curve"/>
      <point x="168" y="42"/>
      <point x="122" y="119"/>
      <point x="122" y="254" type="curve" smooth="yes"/>
      <point x="122" y="383"/>
      <point x="173" y="466"/>
      <point x="256" y="466" type="curve" smooth="yes"/>
      <point x="342" y="466"/>
      <point x="389" y="388"/>
      <point x="389" y="254" type="curve" smooth="yes"/>
      <point x="389" y="125"/>
      <point x="338" y="42"/>
    </contour>
  </outline>
</glyph>
<glyph name="uogonek" format="2">
  <advance width="519"/>
  <unicode hex="0173"/>
  <outline>
    <contour>
      <point x="169" y="508" type="line"/>
      <point x="16" y="508" type="line"/>
      <point x="16" y="466" type="line"/>
      <point x="25" y="464" type="line" smooth="yes"/>
      <point x="65" y="458"/>
      <point x="82" y="450"/>
      <point x="82" y="421" type="curve" smooth="yes"/>
      <point x="82" y="151" type="line" smooth="yes"/>
      <point x="82" y="40"/>
      <point x="137" y="-10"/>
      <point x="215" y="-10" type="curve" smooth="yes"/>
      <point x="279" y="-10"/>
      <point x="324" y="25"/>
      <point x="365" y="97" type="curve"/>
      <point x="365" y="161" type="line"/>
      <point x="328" y="87"/>
      <point x="286" y="47"/>
      <point x="235" y="47" type="curve" smooth="yes"/>
      <point x="185" y="47"/>
      <point x="169" y="83"/>
      <point x="169" y="163" type="curve"/>
    </contour>
    <contour>
      <point x="437" y="508" type="line"/>
      <point x="274" y="508" type="line"/>
      <point x="274" y="466" type="line"/>
      <point x="291" y="463" type="line"/>
      <point x="331" y="458"/>
      <point x="350" y="450"/>
      <point x="350" y="421" type="curve" smooth="yes"/>
      <point x="350" y="117" type="line"/>
      <point x="358" y="107" type="line"/>
      <point x="358" y="0" type="line"/>
      <point x="503" y="0" type="line"/>
      <point x="503" y="41" type="line"/>
      <point x="501" y="41" type="line" smooth="yes"/>
      <point x="463" y="41"/>
      <point x="437" y="48"/>
      <point x="437" y="77" type="curve" smooth="yes"/>
    </contour>
    <contour>
      <point x="412" y="32" type="line"/>
      <point x="319" y="-22"/>
      <point x="261" y="-75"/>
      <point x="261" y="-144" type="curve" smooth="yes"/>
      <point x="261" y="-201"/>
      <point x="299" y="-235"/>
      <point x="353" y="-235" type="curve" smooth="yes"/>
      <point x="398" y="-235"/>
      <point x="422" y="-216"/>
      <point x="443" y="-188" type="curve"/>
      <point x="418" y="-157" type="line"/>
      <point x="408" y="-171"/>
      <point x="393" y="-188"/>
      <point x="374" y="-188" type="curve" smooth="yes"/>
      <point x="356" y="-188"/>
      <point x="342" y="-171"/>
      <point x="342" y="-137" type="curve" smooth="yes"/>
      <point x="342" y="-93"/>
      <point x="362" y="-46"/>
      <point x="439" y="7" type="curve"/>
    </contour>
  </outline>
</glyph>
<glyph name="icaron" format="2">
  <advance width="265"/>
  <unicode hex="01D0"/>
  <outline>
    <contour>
      <point x="104" y="576" type="line"/>
      <point x="14" y="728" type="line"/>
      <point x="14" y="738" type="line"/>
      <point x="55" y="738" type="line"/>
      <point x="157" y="621" type="line"/>
      <point x="130" y="621" type="line"/>
      <point x="233" y="738" type="line"/>
      <point x="266" y="738" type="line"/>
      <point x="266" y="728" type="line"/>
      <point x="175" y="576" type="line"/>
    </contour>
    <component base="dotlessi"/>
  </outline>
</glyph>
<glyph name="bullet" format="2">
  <advance width="343"/>
  <unicode hex="2022"/>
  <outline>
    <contour>
      <point x="55" y="337" type="curve" smooth="yes"/>
      <point x="55" y="263"/>
      <point x="104" y="213"/>
      <point x="171" y="213" type="curve" smooth="yes"/>
      <point x="239" y="213"/>
      <point x="288" y="263"/>
      <point x="288" y="337" type="curve" smooth="yes"/>
      <point x="288" y="411"/>
      <point x="239" y="461"/>
      <point x="171" y="461" type="curve" smooth="yes"/>
      <point x="104" y="461"/>
      <point x="55" y="411"/>
    </contour>
  </outline>
</glyph>
<glyph name="minute" format="2">
  <advance width="199"/>
  <unicode hex="2032"/>
  <outline>
    <contour>
      <point x="164" y="710" type="line"/>
      <point x="156" y="620"/>
      <point x="132" y="585"/>
      <point x="119" y="471" type="curve"/>
      <point x="71" y="471" type="line"/>
      <point x="85" y="610"/>
      <point x="73" y="648"/>
      <point x="81" y="710" type="curve"/>
    </contour>
  </outline>
</glyph>
<glyph name="guilsinglleft" format="2">
  <advance width="239"/>
  <unicode hex="2039"/>
  <outline>
    <contour>
      <point x="90" y="220" type="line"/>
      <point x="207" y="455" type="line"/>
      <point x="161" y="455" type="line"/>
      <point x="32" y="284" type="line"/>
      <point x="32" y="246" type="line"/>
      <point x="161" y="75" type="line"/>
      <point x="207" y="75" type="line"/>
      <point x="91" y="306" type="line"/>
    </contour>
  </outline>
</glyph>
<glyph name="franc" format="2">
  <advance width="462"/>
  <unicode hex="20A3"/>
  <outline>
    <contour>
      <point x="193" y="658" type="line"/>
      <point x="279" y="658" type="line" smooth="yes"/>
      <point x="347" y="658"/>
      <point x="375" y="651"/>
      <point x="378" y="615" type="curve" smooth="yes"/>
      <point x="385" y="529" type="line"/>
      <point x="435" y="529" type="line"/>
      <point x="435" y="710" type="line"/>
      <point x="28" y="710" type="line"/>
      <point x="28" y="666" type="line"/>
      <point x="38" y="666" type="line" smooth="yes"/>
      <point x="76" y="666"/>
      <point x="104" y="659"/>
      <point x="104" y="630" type="curve" smooth="yes"/>
      <point x="104" y="80" type="line" smooth="yes"/>
      <point x="104" y="51"/>
      <point x="76" y="44"/>
      <point x="38" y="44" type="curve" smooth="yes"/>
      <point x="28" y="44" type="line"/>
      <point x="28" y="0" type="line"/>
      <point x="283" y="0" type="line"/>
      <point x="283" y="44" type="line"/>
      <point x="270" y="44" type="line" smooth="yes"/>
      <point x="235" y="44"/>
      <point x="193" y="45"/>
      <point x="193" y="80" type="curve" smooth="yes"/>
    </contour>
    <contour>
      <point x="28" y="228" type="line"/>
      <point x="28" y="180" type="line"/>
      <point x="295" y="180" type="line"/>
      <point x="295" y="228" type="line"/>
    </contour>
    <contour>
      <point x="169" y="400" type="curve"/>
      <point x="169" y="354" type="line"/>
      <point x="234" y="351"/>
      <point x="300" y="349"/>
      <point x="366" y="347" type="curve"/>
      <point x="366" y="407" type="line"/>
      <point x="301" y="405"/>
      <point x="235" y="403"/>
    </contour>
  </outline>
</glyph>
<glyph name="Euro" format="2">
  <advance width="462"/>
  <unicode hex="20AC"/>
  <outline>
    <contour>
      <point x="16" y="294" type="line"/>
      <point x="16" y="243" type="line"/>
      <point x="296" y="243" type="line"/>
      <point x="296" y="294" type="line"/>
    </contour>
    <contour>
      <point x="16" y="448" type="line"/>
      <point x="16" y="397" type="line"/>
      <point x="337" y="397" type="line"/>
      <point x="337" y="448" type="line"/>
    </contour>
    <contour>
      <point x="280" y="-10" type="curve" smooth="yes"/>
      <point x="371" y="-10"/>
      <point x="429" y="58"/>
      <point x="453" y="156" type="curve"/>
      <point x="401" y="181" type="line"/>
      <point x="383" y="109"/>
      <point x="346" y="46"/>
      <point x="287" y="46" type="curve" smooth="yes"/>
      <point x="214" y="46"/>
      <point x="164" y="132"/>
      <point x="164" y="354" type="curve" smooth="yes"/>
      <point x="164" y="582"/>
      <point x="220" y="664"/>
      <point x="304" y="664" type="curve" smooth="yes"/>
      <point x="350" y="664"/>
      <point x="380" y="638"/>
      <point x="396" y="607" type="curve"/>
      <point x="410" y="621"/>
      <point x="390" y="651"/>
      <point x="359" y="658" type="curve"/>
      <point x="359" y="556" type="line"/>
      <point x="442" y="556" type="line"/>
      <point x="442" y="670" type="line"/>
      <point x="423" y="690"/>
      <point x="378" y="720"/>
      <point x="304" y="720" type="curve" smooth="yes"/>
      <point x="175" y="720"/>
      <point x="73" y="610"/>
      <point x="73" y="354" type="curve" smooth="yes"/>
      <point x="73" y="102"/>
      <point x="161" y="-10"/>
    </contour>
  </outline>
</glyph>
<glyph name="trademark" format="2">
  <advance width="722"/>
  <unicode hex="2122"/>
  <outline>
    <contour>
      <point x="47" y="710" type="line"/>
      <point x="47" y="607" type="line"/>
      <point x="79" y="607" type="line"/>
      <point x="82" y="655" type="line" smooth="yes"/>
      <point x="83" y="669"/>
      <point x="96" y="676"/>
      <point x="127" y="676" type="curve" smooth="yes"/>
      <point x="144" y="676" type="line"/>
      <point x="144" y="445" type="line" smooth="yes"/>
      <point x="144" y="432"/>
      <point x="131" y="428"/>
      <point x="114" y="428" type="curve" smooth="yes"/>
      <point x="106" y="428" type="line"/>
      <point x="106" y="395" type="line"/>
      <point x="237" y="395" type="line"/>
      <point x="237" y="428" type="line"/>
      <point x="229" y="428" type="line" smooth="yes"/>
      <point x="212" y="428"/>
      <point x="198" y="432"/>
      <point x="198" y="445" type="curve" smooth="yes"/>
      <point x="198" y="676" type="line"/>
      <point x="216" y="676" type="line" smooth="yes"/>
      <point x="247" y="676"/>
      <point x="260" y="669"/>
      <point x="261" y="655" type="curve" smooth="yes"/>
      <point x="264" y="607" type="line"/>
      <point x="296" y="607" type="line"/>
      <point x="296" y="710" type="line"/>
    </contour>
    <contour>
      <point x="321" y="395" type="line"/>
      <point x="419" y="395" type="line"/>
      <point x="419" y="428" type="line"/>
      <point x="418" y="428" type="line" smooth="yes"/>
      <point x="410" y="428"/>
      <point x="393" y="431"/>
      <point x="393" y="433" type="curve" smooth="yes"/>
      <point x="393" y="702" type="line"/>
      <point x="388" y="701" type="line"/>
      <point x="466" y="394" type="line"/>
      <point x="510" y="394" type="line"/>
      <point x="590" y="701" type="line"/>
      <point x="584" y="701" type="line"/>
      <point x="584" y="433" type="line" smooth="yes"/>
      <point x="584" y="431"/>
      <point x="570" y="428"/>
      <point x="560" y="428" type="curve" smooth="yes"/>
      <point x="558" y="428" type="line"/>
      <point x="558" y="395" type="line"/>
      <point x="674" y="395" type="line"/>
      <point x="674" y="428" type="line"/>
      <point x="669" y="428" type="line" smooth="yes"/>
      <point x="651" y="428"/>
      <point x="639" y="432"/>
      <point x="639" y="445" type="curve" smooth="yes"/>
      <point x="639" y="661" type="line" smooth="yes"/>
      <point x="639" y="675"/>
      <point x="651" y="677"/>
      <point x="669" y="677" type="curve" smooth="yes"/>
      <point x="674" y="677" type="line"/>
      <point x="674" y="710" type="line"/>
      <point x="556" y="710" type="line"/>
      <point x="486" y="435" type="line"/>
      <point x="504" y="434" type="line"/>
      <point x="441" y="710" type="line"/>
      <point x="321" y="710" type="line"/>
      <point x="321" y="677" type="line"/>
      <point x="325" y="677" type="line" smooth="yes"/>
      <point x="342" y="677"/>
      <point x="355" y="675"/>
      <point x="355" y="661" type="curve" smooth="yes"/>
      <point x="355" y="445" type="line" smooth="yes"/>
      <point x="355" y="432"/>
      <point x="342" y="428"/>
      <point x="325" y="428" type="curve"/>
      <point x="321" y="428" type="line"/>
    </contour>
  </outline>
</glyph>
<glyph name="product" format="2">
  <advance width="619"/>
  <unicode hex="220F"/>
  <outline>
    <contour>
      <point x="35" y="710" type="line"/>
      <point x="35" y="666" type="line"/>
      <point x="44" y="666" type="line" smooth="yes"/>
      <point x="83" y="666"/>
      <point x="111" y="659"/>
      <point x="111" y="630" type="curve" smooth="yes"/>
      <point x="111" y="-143" type="line" smooth="yes"/>
      <point x="111" y="-172"/>
      <point x="83" y="-179"/>
      <point x="44" y="-179" type="curve" smooth="yes"/>
      <point x="35" y="-179" type="line"/>
      <point x="35" y="-223" type="line"/>
      <point x="270" y="-223" type="line"/>
      <point x="270" y="-179" type="line"/>
      <point x="263" y="-179" type="line" smooth="yes"/>
      <point x="235" y="-179"/>
      <point x="199" y="-176"/>
      <point x="199" y="-169" type="curve" smooth="yes"/>
      <point x="199" y="656" type="line" smooth="yes"/>
      <point x="199" y="663"/>
      <point x="237" y="666"/>
      <point x="268" y="666" type="curve" smooth="yes"/>
      <point x="352" y="666" type="line" smooth="yes"/>
      <point x="382" y="666"/>
      <point x="420" y="663"/>
      <point x="420" y="656" type="curve" smooth="yes"/>
      <point x="420" y="-169" type="line" smooth="yes"/>
      <point x="420" y="-176"/>
      <point x="385" y="-179"/>
      <point x="356" y="-179" type="curve" smooth="yes"/>
      <point x="349" y="-179" type="line"/>
      <point x="349" y="-223" type="line"/>
      <point x="584" y="-223" type="line"/>
      <point x="584" y="-179" type="line"/>
      <point x="575" y="-179" type="line" smooth="yes"/>
      <point x="536" y="-179"/>
      <point x="508" y="-172"/>
      <point x="508" y="-143" type="curve" smooth="yes"/>
      <point x="508" y="630" type="line" smooth="yes"/>
      <point x="508" y="659"/>
      <point x="536" y="666"/>
      <point x="575" y="666" type="curve" smooth="yes"/>
      <point x="584" y="666" type="line"/>
      <point x="584" y="710" type="line"/>
    </contour>
  </outline>
</glyph>
<glyph name="two.den" format="2">
  <advance width="272"/>
  <unicode hex="E404"/>
  <outline>
    <contour>
      <point x="156" y="50" type="line" smooth="yes"/>
      <point x="194" y="50"/>
      <point x="208" y="54"/>
      <point x="209" y="73" type="curve" smooth="yes"/>
      <point x="214" y="112" type="line"/>
      <point x="248" y="112" type="line"/>
      <point x="248" y="0" type="line"/>
      <point x="21" y="0" type="line"/>
      <point x="21" y="59" type="line"/>
      <point x="100" y="116"/>
      <point x="168" y="170"/>
      <point x="168" y="248" type="curve" smooth="yes"/>
      <point x="168" y="291"/>
      <point x="153" y="309"/>
      <point x="125" y="309" type="curve" smooth="yes"/>
      <point x="95" y="309"/>
      <point x="74" y="287"/>
      <point x="62" y="261" type="curve"/>
      <point x="63" y="281"/>
      <point x="70" y="300"/>
      <point x="83" y="301" type="curve"/>
      <point x="83" y="237" type="line"/>
      <point x="26" y="237" type="line"/>
      <point x="26" y="289" type="line"/>
      <point x="43" y="318"/>
      <point x="82" y="346"/>
      <point x="132" y="346" type="curve" smooth="yes"/>
      <point x="199" y="346"/>
      <point x="237" y="311"/>
      <point x="237" y="246" type="curve" smooth="yes"/>
      <point x="237" y="161"/>
      <point x="134" y="87"/>
      <point x="49" y="36" type="curve"/>
      <point x="44" y="37"/>
      <point x="44" y="47"/>
      <point x="45" y="50" type="curve"/>
    </contour>
  </outline>
</glyph>
<glyph name="nine.den" format="2">
  <advance width="274"/>
  <unicode hex="E40B"/>
  <outline>
    <contour>
      <point x="50" y="19" type="line"/>
      <point x="141" y="32"/>
      <point x="189" y="103"/>
      <point x="189" y="202" type="curve" smooth="yes"/>
      <point x="189" y="282"/>
      <point x="168" y="309"/>
      <point x="137" y="309" type="curve" smooth="yes"/>
      <point x="105" y="309"/>
      <point x="87" y="278"/>
      <point x="87" y="229" type="curve" smooth="yes"/>
      <point x="87" y="186"/>
      <point x="101" y="157"/>
      <point x="133" y="157" type="curve" smooth="yes"/>
      <point x="163" y="157"/>
      <point x="184" y="188"/>
      <point x="199" y="230" type="curve"/>
      <point x="203" y="198" type="line"/>
      <point x="192" y="160"/>
      <point x="163" y="119"/>
      <point x="115" y="119" type="curve" smooth="yes"/>
      <point x="60" y="119"/>
      <point x="18" y="160"/>
      <point x="18" y="227" type="curve" smooth="yes"/>
      <point x="18" y="297"/>
      <point x="67" y="346"/>
      <point x="136" y="346" type="curve" smooth="yes"/>
      <point x="206" y="346"/>
      <point x="256" y="299"/>
      <point x="256" y="201" type="curve" smooth="yes"/>
      <point x="256" y="91"/>
      <point x="183" y="-2"/>
      <point x="55" y="-17" type="curve"/>
    </contour>
  </outline>
</glyph>
<glyph name="blackcircle" format="2">
  <advance width="488"/>
  <outline>
    <contour>
      <point x="244" y="80" type="curve" smooth="yes"/>
      <point x="348" y="80"/>
      <point x="430" y="177"/>
      <point x="430" y="304" type="curve" smooth="yes"/>
      <point x="430" y="431"/>
      <point x="348" y="528"/>
      <point x="244" y="528" type="curve" smooth="yes"/>
      <point x="140" y="528"/>
      <point x="58" y="431"/>
      <point x="58" y="304" type="curve" smooth="yes"/>
      <point x="58" y="177"/>
      <point x="140" y="80"/>
    </contour>
  </outline>
</glyph>
<glyph name="breve_tilde" format="2">
  <advance width="420"/>
  <anchor x="210" y="524" name="_top"/>
  <outline>
    <contour>
      <point x="262" y="766" type="curve" smooth="yes"/>
      <point x="308" y="766"/>
      <point x="338" y="808"/>
      <point x="352" y="877" type="curve"/>
      <point x="310" y="892" type="line"/>
      <point x="301" y="853"/>
      <point x="290" y="827"/>
      <point x="268" y="827" type="curve" smooth="yes"/>
      <point x="235" y="827"/>
      <point x="208" y="891"/>
      <point x="156" y="891" type="curve" smooth="yes"/>
      <point x="106" y="891"/>
      <point x="81" y="852"/>
      <point x="68" y="779" type="curve"/>
      <point x="111" y="764" type="line"/>
      <point x="117" y="807"/>
      <point x="128" y="830"/>
      <point x="150" y="830" type="curve" smooth="yes"/>
      <point x="179" y="830"/>
      <point x="204" y="766"/>
    </contour>
    <contour>
      <point x="210" y="583" type="curve" smooth="yes"/>
      <point x="144" y="583"/>
      <point x="96" y="629"/>
      <point x="93" y="720" type="curve"/>
      <point x="146" y="720" type="line"/>
      <point x="152" y="665"/>
      <point x="175" y="646"/>
      <point x="213" y="646" type="curve" smooth="yes"/>
      <point x="250" y="646"/>
      <point x="272" y="665"/>
      <point x="278" y="720" type="curve"/>
      <point x="327" y="720" type="line"/>
      <point x="323" y="629"/>
      <point x="275" y="583"/>
    </contour>
  </outline>
</glyph>
<glyph name="circumflex_acute.uc" format="2">
  <advance width="420"/>
  <anchor x="191" y="749" name="_top"/>
  <outline>
    <contour>
      <point x="361" y="951" type="curve" smooth="yes"/>
      <point x="317" y="867" type="line"/>
      <point x="317" y="848" type="line"/>
      <point x="341" y="848" type="line"/>
      <point x="403" y="894" type="line" smooth="yes"/>
      <point x="434" y="913"/>
      <point x="453" y="933"/>
      <point x="453" y="956" type="curve" smooth="yes"/>
      <point x="453" y="977"/>
      <point x="438" y="993"/>
      <point x="416" y="993" type="curve" smooth="yes"/>
      <point x="393" y="993"/>
      <point x="376" y="979"/>
    </contour>
    <component base="circumflex.uc"/>
  </outline>
</glyph>
<glyph name="circumflex_grave" format="2">
  <advance width="420"/>
  <anchor x="198" y="564" name="_top"/>
  <outline>
    <contour>
      <point x="346" y="822" type="curve" smooth="yes"/>
      <point x="378" y="708" type="line"/>
      <point x="378" y="689" type="line"/>
      <point x="350" y="689" type="line"/>
      <point x="285" y="780" type="line" smooth="yes"/>
      <point x="267" y="799"/>
      <point x="257" y="819"/>
      <point x="257" y="837" type="curve" smooth="yes"/>
      <point x="257" y="857"/>
      <point x="273" y="873"/>
      <point x="295" y="873" type="curve" smooth="yes"/>
      <point x="319" y="873"/>
      <point x="334" y="856"/>
    </contour>
    <component base="circumflex"/>
  </outline>
</glyph>
<glyph name="circumflex_tilde" format="2">
  <advance width="412"/>
  <anchor x="200" y="551" name="_top"/>
  <outline>
    <contour>
      <point x="263" y="769" type="curve" smooth="yes"/>
      <point x="309" y="769"/>
      <point x="339" y="810"/>
      <point x="354" y="878" type="curve"/>
      <point x="311" y="893" type="line"/>
      <point x="302" y="854"/>
      <point x="292" y="828"/>
      <point x="269" y="828" type="curve" smooth="yes"/>
      <point x="236" y="828"/>
      <point x="209" y="891"/>
      <point x="157" y="891" type="curve" smooth="yes"/>
      <point x="107" y="891"/>
      <point x="82" y="853"/>
      <point x="70" y="782" type="curve"/>
      <point x="112" y="767" type="line"/>
      <point x="119" y="810"/>
      <point x="130" y="834"/>
      <point x="152" y="834" type="curve" smooth="yes"/>
      <point x="180" y="834"/>
      <point x="206" y="769"/>
    </contour>
    <contour>
      <point x="244" y="723" type="line"/>
      <point x="334" y="586" type="line"/>
      <point x="334" y="576" type="line"/>
      <point x="291" y="576" type="line"/>
      <point x="190" y="678" type="line"/>
      <point x="217" y="678" type="line"/>
      <point x="115" y="576" type="line"/>
      <point x="81" y="576" type="line"/>
      <point x="81" y="586" type="line"/>
      <point x="171" y="723" type="line"/>
    </contour>
  </outline>
</glyph>
<glyph name="dollar.alt" format="2">
  <advance width="462"/>
  <outline>
    <contour>
      <point x="208" y="789" type="line"/>
      <point x="208" y="674" type="line"/>
      <point x="260" y="674" type="line"/>
      <point x="260" y="789" type="line"/>
    </contour>
    <contour>
      <point x="208" y="32" type="line"/>
      <point x="208" y="-120" type="line"/>
      <point x="260" y="-120" type="line"/>
      <point x="260" y="32" type="line"/>
    </contour>
    <contour>
      <point x="234" y="65" type="curve" smooth="yes"/>
      <point x="169" y="65"/>
      <point x="113" y="95"/>
      <point x="81" y="149" type="curve"/>
      <point x="76" y="135"/>
      <point x="94" y="97"/>
      <point x="119" y="91" type="curve"/>
      <point x="119" y="210" type="line"/>
      <point x="35" y="210" type="line"/>
      <point x="35" y="92" type="line"/>
      <point x="72" y="49"/>
      <point x="145" y="11"/>
      <point x="237" y="11" type="curve" smooth="yes"/>
      <point x="348" y="11"/>
      <point x="430" y="82"/>
      <point x="430" y="205" type="curve" smooth="yes"/>
      <point x="430" y="331"/>
      <point x="343" y="375"/>
      <point x="259" y="401" type="curve" smooth="yes"/>
      <point x="193" y="423"/>
      <point x="130" y="446"/>
      <point x="130" y="531" type="curve" smooth="yes"/>
      <point x="130" y="602"/>
      <point x="169" y="644"/>
      <point x="239" y="644" type="curve" smooth="yes"/>
      <point x="298" y="644"/>
      <point x="342" y="609"/>
      <point x="368" y="574" type="curve"/>
      <point x="371" y="595"/>
      <point x="352" y="624"/>
      <point x="330" y="626" type="curve"/>
      <point x="330" y="528" type="line"/>
      <point x="411" y="528" type="line"/>
      <point x="411" y="633" type="line"/>
      <point x="386" y="662"/>
      <point x="322" y="698"/>
      <point x="243" y="698" type="curve" smooth="yes"/>
      <point x="127" y="698"/>
      <point x="52" y="632"/>
      <point x="52" y="524" type="curve" smooth="yes"/>
      <point x="52" y="398"/>
      <point x="134" y="361"/>
      <point x="212" y="335" type="curve" smooth="yes"/>
      <point x="283" y="309"/>
      <point x="348" y="292"/>
      <point x="348" y="192" type="curve" smooth="yes"/>
      <point x="348" y="105"/>
      <point x="306" y="65"/>
    </contour>
  </outline>
</glyph>
<glyph name="eight.linprop" format="2">
  <advance width="508"/>
  <outline>
    <contour>
      <point x="254" y="720" type="curve" smooth="yes"/>
      <point x="146" y="720"/>
      <point x="68" y="647"/>
      <point x="68" y="543" type="curve" smooth="yes"/>
      <point x="68" y="450"/>
      <point x="127" y="387"/>
      <point x="214" y="372" type="curve"/>
      <point x="183" y="388" type="line"/>
      <point x="183" y="363" type="line"/>
      <point x="214" y="384" type="line"/>
      <point x="113" y="370"/>
      <point x="37" y="299"/>
      <point x="37" y="192" type="curve" smooth="yes"/>
      <point x="37" y="74"/>
      <point x="127" y="-10"/>
      <point x="254" y="-10" type="curve" smooth="yes"/>
      <point x="380" y="-10"/>
      <point x="471" y="74"/>
      <point x="471" y="192" type="curve" smooth="yes"/>
      <point x="471" y="299"/>
      <point x="395" y="370"/>
      <point x="294" y="384" type="curve"/>
      <point x="325" y="363" type="line"/>
      <point x="325" y="388" type="line"/>
      <point x="294" y="372" type="line"/>
      <point x="381" y="387"/>
      <point x="440" y="450"/>
      <point x="440" y="543" type="curve" smooth="yes"/>
      <point x="440" y="647"/>
      <point x="362" y="720"/>
    </contour>
    <contour>
      <point x="254" y="44" type="curve" smooth="yes"/>
      <point x="178" y="44"/>
      <point x="129" y="105"/>
      <point x="129" y="197" type="curve" smooth="yes"/>
      <point x="129" y="294"/>
      <point x="178" y="350"/>
      <point x="254" y="350" type="curve" smooth="yes"/>
      <point x="330" y="350"/>
      <point x="379" y="294"/>
      <point x="379" y="197" type="curve" smooth="yes"/>
      <point x="379" y="105"/>
      <point x="330" y="44"/>
    </contour>
    <contour>
      <point x="254" y="402" type="curve" smooth="yes"/>
      <point x="191" y="402"/>
      <point x="152" y="453"/>
      <point x="152" y="534" type="curve" smooth="yes"/>
      <point x="152" y="614"/>
      <point x="191" y="666"/>
      <point x="254" y="666" type="curve" smooth="yes"/>
      <point x="316" y="666"/>
      <point x="356" y="614"/>
      <point x="356" y="534" type="curve" smooth="yes"/>
      <point x="356" y="453"/>
      <point x="316" y="402"/>
    </contour>
  </outline>
</glyph>
<glyph name="f_b" format="2">
  <advance width="848"/>
  <outline>
    <contour>
      <point x="720" y="257" type="curve" smooth="yes"/>
      <point x="720" y="128"/>
      <point x="681" y="42"/>
      <point x="603" y="42" type="curve" smooth="yes"/>
      <point x="541" y="42"/>
      <point x="494" y="93"/>
      <point x="458" y="193" type="curve"/>
      <point x="424" y="171" type="line"/>
      <point x="477" y="46"/>
      <point x="525" y="-10"/>
      <point x="611" y="-10" type="curve" smooth="yes"/>
      <point x="731" y="-10"/>
      <point x="811" y="99"/>
      <point x="811" y="257" type="curve" smooth="yes"/>
      <point x="811" y="414"/>
      <point x="734" y="518"/>
      <point x="618" y="518" type="curve" smooth="yes"/>
      <point x="531" y="518"/>
      <point x="485" y="456"/>
      <point x="428" y="332" type="curve"/>
      <point x="458" y="308" type="line"/>
      <point x="495" y="410"/>
      <point x="543" y="466"/>
      <point x="607" y="466" type="curve" smooth="yes"/>
      <point x="681" y="466"/>
      <point x="720" y="385"/>
    </contour>
    <contour>
      <point x="390" y="700" type="line"/>
      <point x="390" y="-3" type="line"/>
      <point x="447" y="-3" type="line"/>
      <point x="468" y="110" type="line"/>
      <point x="477" y="125" type="line"/>
      <point x="477" y="735" type="line"/>
      <point x="332" y="735" type="line"/>
    </contour>
    <contour>
      <point x="28" y="508" type="line"/>
      <point x="28" y="457" type="line"/>
      <point x="307" y="457" type="line"/>
      <point x="307" y="508" type="line"/>
    </contour>
    <contour>
      <point x="198" y="576" type="line" smooth="yes"/>
      <point x="198" y="677"/>
      <point x="235" y="701"/>
      <point x="290" y="701" type="curve" smooth="yes"/>
      <point x="350" y="701"/>
      <point x="388" y="677"/>
      <point x="414" y="633" type="curve"/>
      <point x="425" y="701" type="line"/>
      <point x="393" y="730"/>
      <point x="347" y="752"/>
      <point x="290" y="752" type="curve" smooth="yes"/>
      <point x="198" y="752"/>
      <point x="111" y="710"/>
      <point x="111" y="576" type="curve" smooth="yes"/>
      <point x="111" y="77" type="line" smooth="yes"/>
      <point x="111" y="48"/>
      <point x="85" y="41"/>
      <point x="43" y="41" type="curve" smooth="yes"/>
      <point x="33" y="41" type="line"/>
      <point x="33" y="0" type="line"/>
      <point x="274" y="0" type="line"/>
      <point x="274" y="41" type="line"/>
      <point x="264" y="41" type="line" smooth="yes"/>
      <point x="227" y="41"/>
      <point x="198" y="44"/>
      <point x="198" y="51" type="curve" smooth="yes"/>
    </contour>
  </outline>
</glyph>
<glyph name="five.midprop" format="2">
  <advance width="468"/>
  <outline>
    <contour>
      <point x="223" y="-90" type="curve" smooth="yes"/>
      <point x="116" y="-90"/>
      <point x="55" y="-22"/>
      <point x="24" y="57" type="curve"/>
      <point x="73" y="91" type="line"/>
      <point x="97" y="35"/>
      <point x="136" y="-36"/>
      <point x="220" y="-36" type="curve" smooth="yes"/>
      <point x="298" y="-36"/>
      <point x="346" y="36"/>
      <point x="346" y="148" type="curve" smooth="yes"/>
      <point x="346" y="252"/>
      <point x="301" y="313"/>
      <point x="238" y="313" type="curve" smooth="yes"/>
      <point x="188" y="313"/>
      <point x="153" y="287"/>
      <point x="127" y="241" type="curve"/>
      <point x="78" y="241" type="line"/>
      <point x="78" y="609" type="line"/>
      <point x="395" y="609" type="line"/>
      <point x="375" y="540" type="line"/>
      <point x="113" y="540" type="line"/>
      <point x="134" y="589" type="line"/>
      <point x="134" y="275" type="line"/>
      <point x="131" y="265"/>
      <point x="114" y="257"/>
      <point x="114" y="277" type="curve"/>
      <point x="141" y="332"/>
      <point x="192" y="367"/>
      <point x="258" y="367" type="curve" smooth="yes"/>
      <point x="368" y="367"/>
      <point x="434" y="264"/>
      <point x="434" y="148" type="curve" smooth="yes"/>
      <point x="434" y="9"/>
      <point x="351" y="-90"/>
    </contour>
  </outline>
</glyph>
<glyph name="florin" format="2">
  <advance width="462"/>
  <outline>
    <contour>
      <point x="112" y="508" type="line"/>
      <point x="107" y="456" type="line"/>
      <point x="404" y="456" type="line"/>
      <point x="410" y="508" type="line"/>
    </contour>
    <contour>
      <point x="197" y="585" type="curve" smooth="yes"/>
      <point x="135" y="45" type="line" smooth="yes"/>
      <point x="115" y="-140"/>
      <point x="77" y="-177"/>
      <point x="36" y="-177" type="curve" smooth="yes"/>
      <point x="15" y="-177"/>
      <point x="-5" y="-169"/>
      <point x="-21" y="-161" type="curve"/>
      <point x="-25" y="-221" type="line"/>
      <point x="-14" y="-228"/>
      <point x="10" y="-236"/>
      <point x="36" y="-236" type="curve" smooth="yes"/>
      <point x="123" y="-236"/>
      <point x="195" y="-155"/>
      <point x="219" y="56" type="curve" smooth="yes"/>
      <point x="279" y="579" type="line" smooth="yes"/>
      <point x="289" y="673"/>
      <point x="322" y="705"/>
      <point x="373" y="705" type="curve" smooth="yes"/>
      <point x="400" y="705"/>
      <point x="424" y="698"/>
      <point x="449" y="686" type="curve"/>
      <point x="453" y="745" type="line"/>
      <point x="432" y="757"/>
      <point x="399" y="764"/>
      <point x="368" y="764" type="curve" smooth="yes"/>
      <point x="272" y="764"/>
      <point x="210" y="707"/>
    </contour>
  </outline>
</glyph>
<glyph name="lira.altprop" format="2">
  <advance width="499"/>
  <outline>
    <contour>
      <point x="33" y="445" type="line"/>
      <point x="33" y="397" type="line"/>
      <point x="355" y="397" type="line"/>
      <point x="355" y="445" type="line"/>
    </contour>
    <contour>
      <point x="33" y="290" type="line"/>
      <point x="33" y="242" type="line"/>
      <point x="355" y="242" type="line"/>
      <point x="355" y="290" type="line"/>
    </contour>
    <contour>
      <point x="33" y="0" type="line"/>
      <point x="460" y="0" type="line"/>
      <point x="460" y="194" type="line"/>
      <point x="409" y="194" type="line"/>
      <point x="402" y="107" type="line" smooth="yes"/>
      <point x="398" y="71"/>
      <point x="370" y="64"/>
      <point x="300" y="64" type="curve"/>
      <point x="71" y="64" type="line"/>
      <point x="103" y="53" type="line"/>
      <point x="175" y="93"/>
      <point x="216" y="175"/>
      <point x="216" y="251" type="curve" smooth="yes"/>
      <point x="216" y="357"/>
      <point x="163" y="412"/>
      <point x="163" y="525" type="curve" smooth="yes"/>
      <point x="163" y="612"/>
      <point x="214" y="664"/>
      <point x="281" y="664" type="curve" smooth="yes"/>
      <point x="340" y="664"/>
      <point x="377" y="636"/>
      <point x="402" y="606" type="curve"/>
      <point x="403" y="624"/>
      <point x="394" y="647"/>
      <point x="373" y="651" type="curve"/>
      <point x="373" y="547" type="line"/>
      <point x="452" y="547" type="line"/>
      <point x="452" y="659" type="line"/>
      <point x="429" y="685"/>
      <point x="368" y="718"/>
      <point x="280" y="718" type="curve" smooth="yes"/>
      <point x="157" y="718"/>
      <point x="74" y="639"/>
      <point x="74" y="521" type="curve" smooth="yes"/>
      <point x="74" y="408"/>
      <point x="146" y="342"/>
      <point x="146" y="239" type="curve" smooth="yes"/>
      <point x="146" y="160"/>
      <point x="84" y="104"/>
      <point x="33" y="65" type="curve"/>
    </contour>
  </outline>
</glyph>
<glyph name="minus.sup" format="2">
  <advance width="331"/>
  <outline>
    <contour>
      <point x="289" y="589" type="line"/>
      <point x="42" y="589" type="line"/>
      <point x="42" y="545" type="line"/>
      <point x="289" y="545" type="line"/>
    </contour>
  </outline>
</glyph>
<glyph name="nine.lintab" format="2">
  <advance width="462"/>
  <outline>
    <contour>
      <point x="74" y="39" type="line"/>
      <point x="244" y="53"/>
      <point x="342" y="180"/>
      <point x="342" y="405" type="curve" smooth="yes"/>
      <point x="342" y="593"/>
      <point x="299" y="666"/>
      <point x="226" y="666" type="curve" smooth="yes"/>
      <point x="162" y="666"/>
      <point x="121" y="599"/>
      <point x="121" y="496" type="curve" smooth="yes"/>
      <point x="121" y="404"/>
      <point x="153" y="333"/>
      <point x="220" y="333" type="curve" smooth="yes"/>
      <point x="282" y="333"/>
      <point x="328" y="395"/>
      <point x="356" y="484" type="curve"/>
      <point x="365" y="438" type="line"/>
      <point x="345" y="355"/>
      <point x="285" y="279"/>
      <point x="203" y="279" type="curve" smooth="yes"/>
      <point x="104" y="279"/>
      <point x="31" y="367"/>
      <point x="31" y="496" type="curve" smooth="yes"/>
      <point x="31" y="627"/>
      <point x="113" y="720"/>
      <point x="225" y="720" type="curve" smooth="yes"/>
      <point x="349" y="720"/>
      <point x="431" y="618"/>
      <point x="431" y="405" type="curve" smooth="yes"/>
      <point x="431" y="163"/>
      <point x="300" y="3"/>
      <point x="83" y="-15" type="curve"/>
    </contour>
  </outline>
</glyph>
<glyph name="nine.midprop" format="2">
  <advance width="485"/>
  <outline>
    <contour>
      <point x="83" y="-39" type="line"/>
      <point x="258" y="-25"/>
      <point x="359" y="98"/>
      <point x="359" y="316" type="curve" smooth="yes"/>
      <point x="359" y="495"/>
      <point x="308" y="565"/>
      <point x="234" y="565" type="curve" smooth="yes"/>
      <point x="166" y="565"/>
      <point x="125" y="497"/>
      <point x="125" y="393" type="curve" smooth="yes"/>
      <point x="125" y="299"/>
      <point x="157" y="231"/>
      <point x="225" y="231" type="curve" smooth="yes"/>
      <point x="294" y="231"/>
      <point x="342" y="295"/>
      <point x="372" y="386" type="curve"/>
      <point x="380" y="340" type="line"/>
      <point x="360" y="255"/>
      <point x="298" y="177"/>
      <point x="211" y="177" type="curve" smooth="yes"/>
      <point x="110" y="177"/>
      <point x="35" y="262"/>
      <point x="35" y="393" type="curve" smooth="yes"/>
      <point x="35" y="524"/>
      <point x="118" y="619"/>
      <point x="234" y="619" type="curve" smooth="yes"/>
      <point x="357" y="619"/>
      <point x="447" y="520"/>
      <point x="447" y="316" type="curve" smooth="yes"/>
      <point x="447" y="82"/>
      <point x="314" y="-75"/>
      <point x="91" y="-93" type="curve"/>
    </contour>
  </outline>
</glyph>
<glyph name="rupeeIndian.proportional" format="2">
  <advance width="492"/>
  <outline>
    <contour>
      <point x="56" y="518" type="line"/>
      <point x="56" y="471" type="line"/>
      <point x="467" y="471" type="line"/>
      <point x="467" y="518" type="line"/>
    </contour>
    <contour>
      <point x="115" y="281" type="line"/>
      <point x="128" y="281" type="line" smooth="yes"/>
      <point x="278" y="281"/>
      <point x="368" y="369"/>
      <point x="368" y="498" type="curve" smooth="yes"/>
      <point x="368" y="588"/>
      <point x="318" y="656"/>
      <point x="207" y="676" type="curve"/>
      <point x="178" y="662" type="line"/>
      <point x="467" y="662" type="line"/>
      <point x="467" y="710" type="line"/>
      <point x="56" y="710" type="line"/>
      <point x="56" y="657" type="line"/>
      <point x="138" y="657" type="line" smooth="yes"/>
      <point x="231" y="657"/>
      <point x="276" y="597"/>
      <point x="276" y="498" type="curve" smooth="yes"/>
      <point x="276" y="396"/>
      <point x="235" y="329"/>
      <point x="110" y="329" type="curve" smooth="yes"/>
      <point x="56" y="329" type="line"/>
      <point x="56" y="290" type="line"/>
      <point x="291" y="0" type="line"/>
      <point x="407" y="0" type="line"/>
      <point x="407" y="44" type="line"/>
      <point x="397" y="44" type="line" smooth="yes"/>
      <point x="372" y="44"/>
      <point x="358" y="52"/>
      <point x="341" y="72" type="curve" smooth="yes"/>
      <point x="138" y="314" type="line"/>
    </contour>
  </outline>
</glyph>
<glyph name="six.oldprop" format="2">
  <advance width="477"/>
  <outline>
    <contour>
      <point x="381" y="686" type="line"/>
      <point x="230" y="652"/>
      <point x="126" y="498"/>
      <point x="126" y="293" type="curve" smooth="yes"/>
      <point x="126" y="119"/>
      <point x="176" y="44"/>
      <point x="248" y="44" type="curve" smooth="yes"/>
      <point x="315" y="44"/>
      <point x="357" y="121"/>
      <point x="357" y="230" type="curve" smooth="yes"/>
      <point x="357" y="332"/>
      <point x="324" y="400"/>
      <point x="261" y="400" type="curve" smooth="yes"/>
      <point x="193" y="400"/>
      <point x="146" y="333"/>
      <point x="115" y="248" type="curve"/>
      <point x="106" y="294" type="line"/>
      <point x="127" y="373"/>
      <point x="190" y="454"/>
      <point x="276" y="454" type="curve" smooth="yes"/>
      <point x="372" y="454"/>
      <point x="447" y="368"/>
      <point x="447" y="230" type="curve" smooth="yes"/>
      <point x="447" y="93"/>
      <point x="361" y="-10"/>
      <point x="248" y="-10" type="curve" smooth="yes"/>
      <point x="129" y="-10"/>
      <point x="37" y="94"/>
      <point x="37" y="293" type="curve" smooth="yes"/>
      <point x="37" y="512"/>
      <point x="174" y="702"/>
      <point x="372" y="740" type="curve"/>
    </contour>
  </outline>
</glyph>
